<svg width="20" height="22" viewBox="0 0 20 22" fill="none" xmlns="http://www.w3.org/2000/svg">
<path d="M17.9827 2.85069C16.6383 2.70245 15.3151 2.39253 14.0399 1.92721C12.8696 1.49874 11.7471 0.941436 10.6915 0.264869C10.416 0.0916151 10.1 0 9.77778 0C9.45555 0 9.13951 0.0916151 8.86405 0.264869L8.86305 0.265908C7.80769 0.941924 6.6855 1.49887 5.51567 1.92721C4.24073 2.39243 2.91788 2.70236 1.57381 2.85072C1.14206 2.89654 0.742082 3.10676 0.451334 3.44067C0.160586 3.77458 -0.000240892 4.20841 2.70827e-07 4.65816V10.0572C0.000706368 12.0492 0.515137 14.0049 1.49005 15.7217C2.46496 17.4386 3.86493 18.8542 5.54505 19.8222L8.92476 21.7686C9.18505 21.9203 9.47865 22 9.77729 22C10.0759 22 10.3695 21.9203 10.6298 21.7686L14.0105 19.8222C15.6906 18.8542 17.0906 17.4386 18.0655 15.7217C19.0404 14.0049 19.5548 12.0492 19.5556 10.0572V4.65816C19.5558 4.20856 19.3952 3.77484 19.1046 3.44095C18.8141 3.10705 18.4143 2.89673 17.9827 2.85069ZM13.7686 9.08806L10.0079 13.2449C9.82935 13.4427 9.58323 13.5603 9.32212 13.5727C9.061 13.585 8.80559 13.491 8.6104 13.3109L6.35399 11.2325C6.15529 11.0494 6.03489 10.7921 6.01928 10.5171C6.00367 10.2421 6.09412 9.97189 6.27074 9.76599C6.44737 9.56008 6.69569 9.43532 6.96108 9.41914C7.22647 9.40296 7.4872 9.4967 7.68589 9.67972L9.21269 11.0853L12.3055 7.66726C12.3993 7.56365 12.5127 7.48103 12.6385 7.42448C12.7643 7.36792 12.8999 7.33863 13.037 7.33839C13.2325 7.3385 13.4238 7.39781 13.5872 7.50905C13.7506 7.62028 13.879 7.77858 13.9568 7.96448C14.0345 8.15037 14.0581 8.35576 14.0247 8.55537C13.9912 8.75498 13.9022 8.94017 13.7686 9.08806Z" fill="#1C274C"/>
</svg>
