<svg width="29" height="31" viewBox="0 0 29 31" fill="none" xmlns="http://www.w3.org/2000/svg">
<path d="M14.5 19.5943C16.8915 19.5943 18.8302 17.6556 18.8302 15.2641C18.8302 12.8727 16.8915 10.934 14.5 10.934C12.1085 10.934 10.1698 12.8727 10.1698 15.2641C10.1698 17.6556 12.1085 19.5943 14.5 19.5943Z" stroke="#1C274C" stroke-width="2"/>
<path d="M17.0278 1.21716C16.5015 1 15.8344 1 14.5 1C13.1656 1 12.4985 1 11.9722 1.21716C11.2705 1.50671 10.713 2.06208 10.4224 2.7611C10.2897 3.0802 10.2378 3.45129 10.2174 3.9926C10.1876 4.7881 9.77807 5.52443 9.08601 5.92246C8.39399 6.32047 7.54911 6.30561 6.84263 5.93363C6.36189 5.6805 6.01332 5.53974 5.66957 5.49466C4.91654 5.3959 4.15499 5.59918 3.55243 6.05978C3.1005 6.40523 2.76692 6.98082 2.09975 8.13198C1.43258 9.28315 1.099 9.85872 1.02464 10.4213C0.925514 11.1715 1.12957 11.9301 1.59194 12.5304C1.80297 12.8044 2.09956 13.0347 2.5599 13.3228C3.23661 13.7464 3.67203 14.4681 3.67199 15.2642C3.67195 16.0602 3.23654 16.7817 2.55988 17.2052C2.09949 17.4935 1.80285 17.7239 1.59179 17.9979C1.12943 18.5981 0.925371 19.3567 1.02451 20.1068C1.09886 20.6694 1.43244 21.2451 2.09961 22.3962C2.76679 23.5473 3.10037 24.123 3.55228 24.4684C4.15485 24.929 4.9164 25.1322 5.66942 25.0335C6.01314 24.9885 6.3617 24.8477 6.84241 24.5946C7.54894 24.2226 8.39388 24.2078 9.08596 24.6057C9.77804 25.0039 10.1876 25.7402 10.2174 26.5358C10.2378 27.077 10.2897 27.4482 10.4224 27.7672C10.713 28.4662 11.2705 29.0216 11.9722 29.3112C12.4985 29.5283 13.1656 29.5283 14.5 29.5283C15.8344 29.5283 16.5015 29.5283 17.0278 29.3112C17.7295 29.0216 18.287 28.4662 18.5776 27.7672C18.7103 27.4482 18.7623 27.077 18.7826 26.5357C18.8124 25.7402 19.2219 25.0039 19.9139 24.6057C20.6059 24.2076 21.4509 24.2226 22.1575 24.5946C22.6382 24.8477 22.9867 24.9883 23.3304 25.0334C24.0834 25.1322 24.845 24.929 25.4475 24.4684C25.8994 24.1229 26.2331 23.5473 26.9002 22.3961C27.5674 21.245 27.9011 20.6694 27.9754 20.1068C28.0745 19.3567 27.8704 18.598 27.4081 17.9977C27.197 17.7237 26.9003 17.4934 26.44 17.2052C25.7634 16.7817 25.328 16.0601 25.328 15.264C25.328 14.4679 25.7634 13.7466 26.44 13.3231C26.9005 13.0348 27.1971 12.8046 27.4082 12.5304C27.8706 11.9302 28.0746 11.1716 27.9755 10.4214C27.9012 9.85882 27.5676 9.28324 26.9003 8.13208C26.2332 6.98092 25.8996 6.40533 25.4477 6.05988C24.8452 5.59928 24.0835 5.396 23.3305 5.49476C22.9869 5.53984 22.6383 5.68058 22.1575 5.93368C21.451 6.30568 20.6061 6.32056 19.9141 5.9225C19.2219 5.52446 18.8124 4.78807 18.7826 3.99253C18.7623 3.45127 18.7103 3.08018 18.5776 2.7611C18.287 2.06208 17.7295 1.50671 17.0278 1.21716Z" stroke="#1C274C" stroke-width="2"/>
</svg>
