<svg width="19" height="22" viewBox="0 0 19 22" fill="none" xmlns="http://www.w3.org/2000/svg">
<path d="M4.14554 7.64938C4.84688 7.64852 5.5307 7.86839 6.1001 8.27785L12.4047 4.27208C12.1859 3.49568 12.2537 2.66649 12.5957 1.93592C12.9376 1.20536 13.531 0.622168 14.2673 0.292842C15.0037 -0.0364837 15.8339 -0.08997 16.6064 0.14215C17.3789 0.37427 18.0422 0.876509 18.4751 1.55715C18.908 2.2378 19.0816 3.05144 18.9642 3.8495C18.8469 4.64756 18.4464 5.37678 17.8359 5.90402C17.2255 6.43126 16.4457 6.72133 15.6391 6.72126C14.8324 6.72119 14.0527 6.43099 13.4423 5.90365L7.28492 9.816C7.57563 10.5832 7.57563 11.4302 7.28492 12.1973L13.4423 16.1097C14.0519 15.5836 14.8303 15.2943 15.6354 15.2945C16.4406 15.2948 17.2188 15.5846 17.828 16.111C18.4372 16.6374 18.8368 17.3654 18.9538 18.162C19.0709 18.9586 18.8975 19.7707 18.4654 20.4501C18.0333 21.1295 17.3713 21.6308 16.6002 21.8626C15.8292 22.0944 15.0005 22.0411 14.2654 21.7126C13.5303 21.384 12.9379 20.8021 12.5963 20.073C12.2547 19.3439 12.1867 18.5163 12.4047 17.7412L6.10032 13.7354C5.67041 14.0434 5.17382 14.2454 4.65102 14.3251C4.12822 14.4047 3.59399 14.3597 3.09188 14.1938C2.58976 14.0278 2.13395 13.7456 1.7616 13.3701C1.38924 12.9945 1.11087 12.5364 0.949165 12.0329C0.78746 11.5294 0.746996 10.9948 0.83107 10.4727C0.915142 9.95055 1.12138 9.4557 1.43297 9.0284C1.74455 8.60111 2.15268 8.25348 2.6241 8.01383C3.09551 7.77418 3.61688 7.64929 4.14571 7.64934L4.14554 7.64938Z" fill="#1C274C"/>
</svg>
